<svg id="Layer_1" data-name="Layer 1" xmlns="http://www.w3.org/2000/svg" width="58.78" height="43.638" viewBox="0 0 58.78 43.638">
  <defs>
    <style>
      .cls-1 {
        fill: #c1e8fb;
      }

      .cls-2 {
        fill: #30302f;
      }
    </style>
  </defs>
  <polyline class="cls-1" points="11.588 19.885 2.351 16.666 5.156 20.494 8.307 22.457 8.912 23.831 7.53 25.817 3.343 27.975 2.351 29.27 7.962 29.831 9.818 30.134 11.329 32.249 14.874 35.661 18.392 37.126 23.856 38.076 28.207 37.472 30.84 36.436 35.156 40.062 40.552 42.695 44.825 42.695 46.482 40.752 47.027 38.033 48.926 37.903 51.559 34.676 53.372 33.932 53.162 32.074 47.642 28.099 51.084 24.849 54.797 20.486 57.257 10.018 54.236 10.321 54.494 7.86 52.725 8.767 50.424 11.835 48.236 12.436 49.617 4.191 49.305 2.588 45.041 9.241 40.25 12.436 34.509 12.652 31.876 10.191 28.423 4.364 27.789 2.119 25.444 2.982 23.503 0.954 20.548 4.407 17.459 3.544 16.854 8.162 19.228 12.565 17.027 13.903 13.876 15.889"/>
  <g>
    <path class="cls-2" d="M20.284,21.622a2.091,2.091,0,0,0-2.042-1.057,2.172,2.172,0,0,0-2,1.856,2.224,2.224,0,0,0,2.055,2.427A2.484,2.484,0,0,0,20.548,22.6,1.958,1.958,0,0,0,20.284,21.622Z"/>
    <path class="cls-2" d="M29.371,37.591c.616-.241.434-1.116-.243-.947-6.775,1.69-14.9.04-18.713-6.5a.707.707,0,0,0-.448-.915,29.367,29.367,0,0,0-5.9-.819c2.244-1.055,4.648-2.061,5.744-4.172.535-1.031-.024-1.757-.827-2.369-1.413-1.074-3.547-2.179-4.828-3.67,2.071.62,4.1,1.368,6.208,1.85a.346.346,0,0,0,.266-.629,26.09,26.09,0,0,0-7.956-3.326A.827.827,0,0,0,1.663,17.1c.538,1.785,1.778,2.737,3.17,3.9.512.427,3.467,2.31,3.305,2.639C7.47,25,5.2,25.914,3.947,26.607a22.446,22.446,0,0,0-3.7,2.241c-.637.534.065,1.389.737,1.266,2.938-.537,5.783.8,8.666.453A15.34,15.34,0,0,0,29.371,37.591Z"/>
    <path class="cls-2" d="M53.055,30.767c-1.422-1.883-3.914-2.893-5.919-4a16.685,16.685,0,0,1-3.359-2.309,6.168,6.168,0,0,1-1.744-3.586c-.107-.484-.4-.509-.621-.077-1.5,2.89,1.711,5.762,3.792,7.046,1.564.965,3.223,1.768,4.8,2.711.9.538,2.264,1.473,2.409,2.613.117.922-.827.977-1.8.8a3.347,3.347,0,0,0-1.761-1.084c-1.082-.255-1.537,1.431-.457,1.657a1.9,1.9,0,0,1,.7.3c.062.057.125.115.191.165a1.254,1.254,0,0,1,.072,1.8c-.876,1.075-2.347.314-3.609-.141a4.253,4.253,0,0,0-.584-.422c-.7-.413-1.561.631-.89,1.154,2.1,1.634,2.23,4.416-1.527,4.71-1.434.113-3.28-.811-4.515-1.387a22.042,22.042,0,0,1-5.383-3.31,11.6,11.6,0,0,1-3.5-11.592c.147-.514-.6-.693-.783-.216-2.867,7.374,2.722,13.415,8.866,16.48,2.867,1.431,6.317,2.539,8.968.174a3.1,3.1,0,0,0,.793-3.49,3.493,3.493,0,0,0,3.632-1.226,2.671,2.671,0,0,0,.52-2C53.269,35.3,54.923,33.243,53.055,30.767Z"/>
    <path class="cls-2" d="M20.545,3.764a2.649,2.649,0,0,0-3.444-.7c-1.29.818-1.519,2.684-1.393,4.062.164,1.8,1.047,3.721,2.831,4.382a.307.307,0,0,0,.344-.448A9.939,9.939,0,0,1,17.3,7.5c-.154-.814-.134-2.44.635-3.014.448-.334.975.014,1.317.335.767.72.8,1.678,1.1,2.611a.809.809,0,0,0,1.581-.214,4.1,4.1,0,0,0-.47-2.139,4.322,4.322,0,0,1,1.586-3.228c1.52-.888,1.029,2.987,1.136,3.581a.81.81,0,0,0,1.553,0c.034-.175.06-.37.082-.574.5-1.046,1.807-3.182,1.964-.981a10.352,10.352,0,0,0,.931,3.871c.793,1.733,2.737,4.391,4.879,5.072-2.712-.021-5.462-.836-8.466-1.152-6.532-.688-11.823,1.763-14.083,8.149-.1.284.323.44.472.2,2.936-4.778,6.743-7.014,12.367-6.74,4.3.209,7.765,2.031,12.146,1.247C40.248,13.763,46.338,9.154,48.6,4.4a10.4,10.4,0,0,1,.186,1.35A11.931,11.931,0,0,1,48.2,9.979a17.039,17.039,0,0,1-.775,2c-.132.288-.763,1.112-.3,1.3.435.178,1.189-.238,1.6-.4a10.425,10.425,0,0,0,3-2.21,15.626,15.626,0,0,0,1.9-2.086c-.012.155-.013.31-.027.465a9.738,9.738,0,0,1-1.3,3.358,1.765,1.765,0,0,0-.254,1.3c.375,1.084,1.788-.479,2.169-.8A24.157,24.157,0,0,0,56.716,10.5a53.12,53.12,0,0,1-1.7,6.937c-1.228,3.875-3.427,6.215-6.057,9.114a.235.235,0,0,0,.284.367c6.511-2.822,9.406-12.773,9.542-19.2A.832.832,0,0,0,57.239,7.3a16.37,16.37,0,0,1-1.875,2.848A26.857,26.857,0,0,0,55.5,5.383a.876.876,0,0,0-1.75,0c-.083,1.41-1.67,3.117-2.538,4.1a13.268,13.268,0,0,1-2.382,2.074,12.658,12.658,0,0,0,1.324-4.42c.249-1.955.922-5.4-.682-6.93a.733.733,0,0,0-1.214.32c-.022.095-.027.194-.041.29C46.62,5.216,43.8,8,40.022,10.762a10.17,10.17,0,0,1-4.7,1.945.376.376,0,0,0-.079-.45A23.576,23.576,0,0,0,33,10.6a11.715,11.715,0,0,1-2.585-3.154,7.232,7.232,0,0,1-1-3.569,3.106,3.106,0,0,0-.571-1.89c-1.32-1.417-2.428-.723-3.138.47C25.419,1.106,24.666.011,23.093.348,21.5.689,20.789,2.191,20.545,3.764Z"/>
    <path class="cls-2" d="M24.17,32.305a9.375,9.375,0,0,0,1.962.239c.587.013,1.167.083,1.532-.44a.426.426,0,0,0,0-.441c-.365-.524-.945-.453-1.532-.44a9.308,9.308,0,0,0-1.962.238A.44.44,0,0,0,24.17,32.305Z"/>
    <path class="cls-2" d="M19.935,34.367c1.9.865,5.144,1.963,7.1.768a.49.49,0,0,0-.115-.886,11.973,11.973,0,0,0-3.05-.131,35.252,35.252,0,0,1-3.647-.422C19.843,33.639,19.523,34.18,19.935,34.367Z"/>
    <path class="cls-2" d="M47.205,22.089a5.166,5.166,0,0,0-1.4.738,6.2,6.2,0,0,1-1.639.612c-.5.121-.4.947.123.905,1.159-.093,2.959-.576,3.294-1.88A.308.308,0,0,0,47.205,22.089Z"/>
    <path class="cls-2" d="M47.078,25.5a4.222,4.222,0,0,0,2.119-1.25c.546-.512,1.275-1.231,1.225-2.036a.476.476,0,0,0-.594-.452c-.688.185-1.061.857-1.5,1.368-.512.595-1.167,1.025-1.7,1.586A.473.473,0,0,0,47.078,25.5Z"/>
  </g>
</svg>
