<svg xmlns="http://www.w3.org/2000/svg" width="54.256" height="54.371" viewBox="0 0 54.256 54.371">
  <defs>
    <style>
      .cls-1 {
        fill: #b890c2;
      }

      .cls-2 {
        fill: #30302f;
      }
    </style>
  </defs>
  <g id="Layer_2" data-name="Layer 2">
    <polygon class="cls-1" points="50.749 15.225 41.539 16.995 40.347 25.995 33.31 38.598 19.692 42.635 16.523 43.672 16.196 51.246 12.505 49.045 7.519 44.772 4.67 41.528 12.764 37.196 15.097 23.086 21.13 15.891 32.253 13.304 36.493 12.98 38.889 6.259 40.67 1.714 42.872 7.282 46.757 7.606 46.304 10.261 48.829 11.297 50.749 15.225"/>
  </g>
  <g id="Layer_1" data-name="Layer 1">
    <path class="cls-2" d="M12.25,37.659c-3.931.8-7.61,2.392-11.624,2.961-.974.137-.746,1.821.232,1.718C2.479,42.168,8.7,42.986,6.9,46a.929.929,0,0,0,.8,1.387c2.783-.2,4.131.087,4.081,3.245a.931.931,0,0,0,1.383.793c2.115-.926,1.8.755,1.952,2.04.109.936,1.626,1.353,1.8.244.542-3.428.659-6.723,1.606-10.048,13.533.4,25.215-11.952,23.174-25.495,3.813-1.942,7.88-.555,11.878-1.7a.955.955,0,0,0,.227-1.731,8.931,8.931,0,0,0-2.639-.875c-1.386-.285-.643-2.107-.564-2.974a.944.944,0,0,0-.943-.942c-1.446-.01-2.837-.316-1.853-2.083a.951.951,0,0,0-.813-1.416c-1.68-.012-3.478.62-4.213-1.429A16.27,16.27,0,0,1,42.04.88c-.074-.94-1.559-1.286-1.75-.237a43.253,43.253,0,0,1-3.823,11.583.982.982,0,0,0-.233-.078C20.886,10.178,11.114,23.211,12.25,37.659Zm6.238,4.13c-2.683.567-2.865,5.734-3.008,7.8a2.42,2.42,0,0,0-1.919-.2c-.278-2.808-1.775-3.833-4.564-3.881.315-1.967-1.282-3.3-3.294-4.081a44.107,44.107,0,0,0,6.864-2.377c2.4-1.114,1-4.357,1.353-6.591a29,29,0,0,1,3.053-9.745c4.856,3.672,5.336,13.615,3.651,19-.056.178-1.785.025-2.015.061C18.568,41.774,18.528,41.781,18.488,41.789ZM28.28,25.177c-.954-2.927-2.886-7.2-6.068-8.368a16.547,16.547,0,0,1,2.964-1.584c6.478,3.785,8.831,15.159,6.92,21.941A21.412,21.412,0,0,1,28.882,39.3C30.487,34.873,29.691,29.514,28.28,25.177Zm5.455,10.538c1.287-6.731-1.107-17.762-7.222-20.983a21.106,21.106,0,0,1,5.677-.976c4.222,5.8,5.167,12.642,3.576,19.694A22.869,22.869,0,0,1,33.735,35.715ZM45.519,8.4c-.679,2.2.575,3.153,3.053,3.368a4.181,4.181,0,0,0,.095,2.753,1.9,1.9,0,0,0,.539.566c-2.956.032-5.905-.281-8.493,1.624a.893.893,0,0,0,.155,1.562,24.33,24.33,0,0,1-2.8,11.632c.675-5.505-.533-12.383-4.192-16.161.724.025,1.442.086,2.154.175a.575.575,0,0,0,.894.061c2.106-2.228,3.169-5.411,3.991-8.543a9.585,9.585,0,0,0,.577,1.425C42.354,8.57,43.933,8.521,45.519,8.4ZM21.092,17.645c6.689,4.117,8.552,15.833,5.848,22.568a20.527,20.527,0,0,1-4.713,1.315c1.55-5.787,1.134-17.043-4.707-19.745a20.843,20.843,0,0,1,1.445-2.019A14.737,14.737,0,0,1,21.092,17.645Z"/>
  </g>
</svg>
