<svg xmlns="http://www.w3.org/2000/svg" width="73.885" height="54.955" viewBox="0 0 73.885 54.955">
  <defs>
    <style>
      .cls-1 {
        fill: #f7941d;
      }

      .cls-2 {
        fill: #30302f;
      }
    </style>
  </defs>
  <g id="Layer_2" data-name="Layer 2">
    <polygon class="cls-1" points="18.908 1.394 22.059 6.196 22.71 7.696 30.563 6.488 36.822 8.465 41.052 11.193 42.908 13.265 50.462 9.38 51.282 11.754 47.527 20.593 48.261 21.596 55.426 19.696 61.556 21.293 64.448 22.761 65.829 22.156 68.591 17.15 68.16 11.624 65.397 6.196 63.93 3.509 67.167 4.329 72.002 8.819 73.297 15.536 71.44 19.176 69.066 22.545 66.52 25.049 70.534 31.955 70.879 37.783 69.671 45.121 67.858 51.034 65.743 53.409 64.318 54.358 61.512 53.624 63.412 47.236 63.757 43.696 60.606 43.006 59.052 45.768 58.189 49.567 56.03 52.934 54.39 54.142 52.448 52.07 54.52 45.466 53.138 39.725 48.822 37.351 43.297 38.085 39.843 41.538 36.908 46.373 31.383 52.373 28.145 51.423 27.122 49.221 30.735 44.473 28.448 42.617 20.937 47.581 18.304 47.193 17.009 44.344 22.857 39.855 23.699 34.243 16.75 30.704 13.426 26.991 11.885 23.735 11.885 21.119 11.885 18.679 16.491 11.365 16.232 5.711 18.908 1.394"/>
  </g>
  <g id="Layer_1" data-name="Layer 1">
    <g>
      <path class="cls-2" d="M25.633,13.8c-1.817-1.45-5.291-1.163-6.6.869-1.071,1.662-.148,3.5,1.515,4.276,2.032.953,5.438.627,6.411-1.71C27.5,15.943,26.616,14.586,25.633,13.8Zm-.173,3.393c-1.1,1.232-3.528.892-4.787.138a1.453,1.453,0,0,1-.409-2.2,2.562,2.562,0,0,1,1.34-.86,4.421,4.421,0,0,1,3.155.46C25.51,15.236,26.209,16.358,25.46,17.194Z"/>
      <path class="cls-2" d="M41.369,18.291c-.8-2.409-4.324-3.274-6.409-2.453a4.413,4.413,0,0,0-1.83,1.356,2.484,2.484,0,0,0,.043,2.827c1.045,1.619,3.637,2.271,5.442,2.112C40.684,21.952,42.041,20.308,41.369,18.291Zm-2.876,2.252a5.449,5.449,0,0,1-3.169-.62c-1.028-.5-1.634-1.934-.588-2.7,1.382-1.016,3.743-.157,4.873.884C40.722,19.127,39.646,20.34,38.493,20.543Z"/>
      <path class="cls-2" d="M23.817,15.21a.817.817,0,0,0-.934-.309c-.788-.053-1.572.423-1.434,1.337.1.666.782,1.417,1.5,1.247A1.692,1.692,0,0,0,23.817,15.21Z"/>
      <path class="cls-2" d="M38.459,18.171a1.376,1.376,0,0,0-1.865-.5,1.22,1.22,0,0,0-.56,1.383.581.581,0,0,0,0,.059,1.22,1.22,0,0,0,2.216.52C38.558,19.159,38.823,18.715,38.459,18.171Z"/>
      <path class="cls-2" d="M19.309,25.78a4.3,4.3,0,0,0,5.227,2.668,8.751,8.751,0,0,0,3.223-1.773,7.823,7.823,0,0,0,2.161,2.612,4.811,4.811,0,0,0,5.985.114c.307-.264.1-.853-.338-.681a4.809,4.809,0,0,1-4.592-.636,4.567,4.567,0,0,1-1.513-2.009,7.183,7.183,0,0,1-.285-1.592,2.738,2.738,0,0,0,.595-.126,2.107,2.107,0,0,0,.822-.595c1.356-1.427.251-2.262-.97-2.669a3.759,3.759,0,0,0-2.851-.019c-1.28.695-.393,1.986.3,2.753a1.725,1.725,0,0,0,.259.231c-.151.262-.276.547-.44.854a4.693,4.693,0,0,1-2.172,1.98c-2,.9-3.615-.142-4.854-1.482C19.628,25.157,19.213,25.435,19.309,25.78Z"/>
      <path class="cls-2" d="M11.867,17.692a5.953,5.953,0,0,0-.059,1.78.432.432,0,0,0,.852.044c.153-.494.331-.973.52-1.441a45.943,45.943,0,0,1,8.205,3.7c.367.2.677-.323.394-.595a23.279,23.279,0,0,0-7.922-4.576C17.33,9.9,24.679,6.52,32.361,7.747,39.636,8.91,46.349,15.793,46.242,23.2c-3.2,0-6.424.338-9.542.479-.353.016-.308.552.043.546,3.014-.061,6.15-.165,9.154.066,2.845.219,5.68,1.207,8.533.885.386-.043.587-.67.155-.814A24.882,24.882,0,0,0,47.1,23.209C47.953,14.187,39.551,7.5,31.26,6.162a17.077,17.077,0,0,0-8.281.866C21.906,4.544,21.086,2.066,18.9.211a.869.869,0,0,0-1.22.08,11.759,11.759,0,0,0-2.034,4.7c-.358,1.68-.9,4.233-.176,5.84a.726.726,0,0,0,.374.378,14.414,14.414,0,0,0-3.515,4.878A26.437,26.437,0,0,0,.414,14.926a.462.462,0,0,0-.049.912c3.065.839,6.427.788,9.572,1.4C10.594,17.366,11.235,17.522,11.867,17.692ZM17.3,6.682a11,11,0,0,1,1.218-4.491,25.034,25.034,0,0,1,3.544,5.178A23.676,23.676,0,0,0,18.9,8.9a15.608,15.608,0,0,0-1.889,1.3A15.851,15.851,0,0,0,17.3,6.682Z"/>
      <path class="cls-2" d="M19.878,22.4c-5.5-1.349-11.535-3.854-17.282-3a.377.377,0,0,0-.039.743c5.62,1.3,11.531,1.708,17.21,2.855C20.154,23.081,20.258,22.5,19.878,22.4Z"/>
      <path class="cls-2" d="M44.158,13.023c2.106-.589,3.8-2.429,5.956-2.8a10.493,10.493,0,0,1-.623,4.159c-.587,1.567-1.952,2.591-1.516,4.363.135.546.453.549.79.147a16.35,16.35,0,0,0,2.927-4.843,9.87,9.87,0,0,0,.026-5.022A.857.857,0,0,0,50.636,8.5a19.006,19.006,0,0,0-6.844,3.785A.416.416,0,0,0,44.158,13.023Z"/>
      <path class="cls-2" d="M71.415,41.257a19.95,19.95,0,0,0-5.873-18.522.314.314,0,0,0,.2-.062c4-2.851,4.281-7.46,3.037-11.92a14.555,14.555,0,0,0-3.354-6.145,15.848,15.848,0,0,1,3.895,2.663c5.7,5.353,2.069,11.391-1.664,16.2-.447.575-.322,1.255.3.733,4.366-3.683,7.406-8.84,5.182-14.5a11.514,11.514,0,0,0-4.036-5,16.706,16.706,0,0,0-3.563-2.129,2.238,2.238,0,0,0-2.228.259c-.741.779.017,1.765.545,2.434a21.34,21.34,0,0,1,2.518,4.193c2.031,4.338,1.844,8.836-1.088,12.683a.36.36,0,0,0-.058.313c-4.439-3.856-10.308-4.627-16.616-1.717-.735.339-.377,1.484.42,1.211a20.409,20.409,0,0,1,6.818-1.279,10.12,10.12,0,0,1,1.436,5.479c-.215,2.282-2.317,4.389-2.032,6.605a.42.42,0,0,0,.643.313C57.962,31.928,58.885,28,59.024,25.8A7.5,7.5,0,0,0,57.4,20.784a12.382,12.382,0,0,1,5,1.8c.662,1.926-.045,4.374-.692,6.161-.691,1.909-2,3.11-3,4.758-.346.569.326,1.049.834.939,2.025-.441,3.4-4,3.91-5.711A9.622,9.622,0,0,0,63.9,23.66a14.386,14.386,0,0,1,3.369,3.976,19.5,19.5,0,0,1-1.205,3.638c-.664,1.444-1.973,2.434-2.549,3.875a.512.512,0,0,0,.622.7c2.4-.807,3.644-3.578,4.121-6.234a21.178,21.178,0,0,1,1.329,11.3,59.183,59.183,0,0,1-1.758,6.529A18.853,18.853,0,0,1,66.8,50.471a3.8,3.8,0,0,1-1.513,2.079c-.542.323-1.784.892-2.306.258-.681-.83.211-2.508.535-3.3.838-2.044,1.78-3.634.994-5.842-.475-1.335-2.873-2.308-4.162-1.862-2.074.719-2.34,3.5-2.679,5.324a9.7,9.7,0,0,1-1.793,4.757c-.443.519-1.946,1.75-2.165.4a4.067,4.067,0,0,1,.358-2.01,34.675,34.675,0,0,0,1.165-3.6,9.683,9.683,0,0,0-1.947-7.693c-2.738-3.811-8.758-4.078-12.029-.934a27,27,0,0,0-5.213,7.582c-1.131,2.235-2.183,3.9-4.6,5-.915.416-3.242,1.052-3.322-.57-.038-.784,1.325-2.111,1.8-2.651a4.583,4.583,0,0,0,1.437-2.5,2.9,2.9,0,0,0-2.616-3.154,4.89,4.89,0,0,0-2.923.859A30.982,30.982,0,0,0,23.3,45.125a5.9,5.9,0,0,1-2.047,1.226c-.749.232-2.827.609-3.043-.518-.357-1.87,2.247-3,3.425-3.822,2.315-1.615,2.78-4.4,2.436-6.984,7.4,2.339,15.536,1.367,19.975-3.695A78.424,78.424,0,0,0,51.6,34.418c.282.09.5-.361.256-.528a36.39,36.39,0,0,0-6.786-3.521,11.421,11.421,0,0,0,1.661-2.27c2.694.783,5.3,1.985,8.049,2.4.357.052.652-.433.328-.678-4.9-3.716-13.23-4.668-19.183-4.462-.508.018-.565.854-.048.9a68.868,68.868,0,0,1,9.557,1.5c-.7.717-1.354,1.4-2,2.04a35.11,35.11,0,0,0-4.4-1.15.43.43,0,0,0-.156.846,23.308,23.308,0,0,1,3.68,1.131,13.843,13.843,0,0,1-5.023,3.05,22.139,22.139,0,0,1-9.968.552c-5.6-.738-11.884-3.474-14.43-8.68a13.626,13.626,0,0,1,4.771.378c.261.076.4-.355.148-.455a19.5,19.5,0,0,0-5.453-1.212,11.16,11.16,0,0,1-.444-1.647c-.052-.281-.482-.262-.452.034A10.715,10.715,0,0,0,12,24.22a17.866,17.866,0,0,0-8.717,1.5.369.369,0,0,0,.138.666c3,.322,6.006-.472,9.026-.782,1.655,4.208,5.815,7.366,10.729,9.118.159,4.7-2.2,6.011-5.478,8.206a3.386,3.386,0,0,0-1.576,2.377c-.315,1.707,2.507,3.39,3.91,3.284a6.713,6.713,0,0,0,3.091-1.009c1.54-.875,2.5-2.726,4.185-3.411.58-.235,2.246-.731,2.161.285a5.607,5.607,0,0,1-1.7,2.435,3.325,3.325,0,0,0-.692,4.718,4.573,4.573,0,0,0,4.586,1.24c1.308-.488,2.331-1.789,3.267-2.769a18.128,18.128,0,0,0,3.079-4.205,37.746,37.746,0,0,1,2.33-4.083c5.382-7.9,16.2-2.007,12.371,6.891-.593,1.379-1.884,4.005-.407,5.3,2.07,1.816,5.04-.411,5.918-2.464a16.527,16.527,0,0,0,1.02-2.807c.344-1.581.237-3.548,1.63-4.7.809-.669,1.694-.154,1.881.8a6.144,6.144,0,0,1-.812,3.932c-.573,1.189-2.042,4.437-.5,5.547a4.308,4.308,0,0,0,5.591-.9C69.662,50.073,70.472,45.279,71.415,41.257Z"/>
    </g>
  </g>
</svg>
