<svg xmlns="http://www.w3.org/2000/svg" width="48.356" height="57.133" viewBox="0 0 48.356 57.133">
  <defs>
    <style>
      .cls-1 {
        fill: #fad0e2;
      }

      .cls-2 {
        fill: #30302f;
      }
    </style>
  </defs>
  <g id="Layer_2" data-name="Layer 2">
    <path class="cls-1" d="M42.9,27.485H39.389l-.47-1.111-.578-1.466L36.082,22.66l-6.7-.937-10.033-.235-8.391.843L6.173,24.4,4.954,29.364l.141,5.11,1.078,5.2L8.8,46.147,3.173,47.741,1.251,51.257l2.484,2.532,5.391,1.218,8.368,1.407,12.26-.188,8.587-2.437,2.429-3.423-.984-2.3-5.3-1.828.375-.656,2.3-5.1,4.36.509,3.14-.967,2.485-3.035V30.536Zm.588,7.9-2.156,1.6-2.391-.432.7-5.6,1.969.281,1.875,1.407Z"/>
  </g>
  <g id="Layer_1" data-name="Layer 1">
    <g>
      <path class="cls-2" d="M23.263,41.133A2.862,2.862,0,0,0,24.5,36.3c-1.731-1.591-5.225-.938-5.467,1.656C18.84,39.959,21.494,41.53,23.263,41.133Zm-2.828-2.906c-.644-1.7,2.745-1.448,3.145-.455a1.28,1.28,0,0,1-.434,1.756C22.32,40.057,20.732,39.01,20.435,38.227Z"/>
      <path class="cls-2" d="M24.557,34.015a1.09,1.09,0,0,0,.219-.642,1.209,1.209,0,0,0-1.14-1.1,1.294,1.294,0,0,0-1.261,1.948A1.235,1.235,0,0,0,24.557,34.015Z"/>
      <path class="cls-2" d="M18.75,34.707a1.236,1.236,0,0,0-1.966-.837A1.08,1.08,0,0,0,16.47,35.5a1.028,1.028,0,0,0,.389.406A1.293,1.293,0,0,0,18.75,34.707Z"/>
      <path class="cls-2" d="M16.059,40.755a.623.623,0,0,0,.19.142.736.736,0,0,0,.225.156,1.154,1.154,0,0,0,1.666-.7c.268-.814-.6-1.379-1.293-1.393A1.078,1.078,0,0,0,16.059,40.755Z"/>
      <path class="cls-2" d="M19.986,43.811a.783.783,0,0,0,.14.241,1.105,1.105,0,0,0,1.77-.323,1.084,1.084,0,0,0-1-1.587A1.068,1.068,0,0,0,19.986,43.811Z"/>
      <path class="cls-2" d="M26.035,41.412a.93.93,0,0,0,.224.872c.546,1.311,2.069.188,2.079-.827a.965.965,0,0,0-.7-.917A1.241,1.241,0,0,0,26.035,41.412Z"/>
      <path class="cls-2" d="M29.041,37.04a1.289,1.289,0,0,0-.475-1.5,1.224,1.224,0,0,0-1.682.469,1.017,1.017,0,0,0,0,1.015c.012.017.024.036.038.054a1.072,1.072,0,0,0,.384.333,1.034,1.034,0,0,0,.83.314A.942.942,0,0,0,29.041,37.04Z"/>
      <path class="cls-2" d="M39.22,25.29c.858-3.117-6.037-4.233-12.488-4.386-.282-1.67-1.469-3.46-2.29-5.42-1.182-2.818,2.7-4.861,3.282-7.29a4.709,4.709,0,0,0-.205-1.518c-.385-2.1-1.387-3.876-.135-6.109A.386.386,0,0,0,26.86.043c-4.722,2.316.605,7.481-2.524,10.613-3.339,3.342.32,6.8.894,10.223-2.7-.019-5.193.078-6.857.179a4.726,4.726,0,0,1,1.2-1.465,2.507,2.507,0,0,0,.916-1.438c.42-3.644-5.008-4.743-1.3-8.728a.549.549,0,0,0-.663-.859c-3.482,1.73-2.387,5.211-.082,7.467,1.592,1.557-.657,3.419-1.375,5.117-.209.017-.391.035-.518.05-1.5.173-3,.381-4.5.588-1.916.265-5.064.508-6.3,2.3-2.457,3.564,11.114,5.205,15.11,4.79a72.643,72.643,0,0,0,9.424-.215C32.453,28.466,38.459,28.055,39.22,25.29ZM20.209,27.484a30.892,30.892,0,0,1-7.276-.678c-.515-.12-6.4-1.87-5.271-2.487,2.549-1.388,6.015-1.664,9.22-1.828a3.888,3.888,0,0,0,1.958,2.831c.406.222.9-.351.511-.662a3.086,3.086,0,0,1-1.287-2.23c.6-.029,1.186-.063,1.75-.1,2.031.021,3.611,0,5.406.084a5.43,5.43,0,0,1-.9,1.976c-.219.269.066.742.4.516a4.7,4.7,0,0,0,1.876-2.154c1.669.051,3.341.012,5.011.072,1.986.072,8.256,1.342,3.276,3.317-2.519,1-5.437,1.06-8.124,1.135C24.6,27.337,22.4,27.471,20.209,27.484Z"/>
      <path class="cls-2" d="M39.638,27.347c-.035-.325-.072-.649-.117-.973-.043-.306-.547-.292-.6,0-1,5.231-.708,10.446-2.831,15.466-2.11,4.987-6.655,7.776-11.86,8.618A15.687,15.687,0,0,1,8.22,42.824C5.554,38.37,6.047,31.715,5.681,26.665a.212.212,0,0,0-.415-.056C3.043,32.373,4.818,41.043,8.32,45.993,6.019,46-1.41,47.706.236,51.382c1.365,3.049,5.9,3.974,8.807,4.5a67.54,67.54,0,0,0,23.121.467c2.6-.422,5.757-1.077,7.873-2.764,4.879-3.891-.571-7.273-4.823-7.588a20.979,20.979,0,0,0,2.517-4.456c4.585.639,9.892-1.015,10.558-6.289C48.935,30.126,44.845,25.727,39.638,27.347Zm-.3,24.336c-1.276,1.4-3.811,1.859-5.585,2.3a50.822,50.822,0,0,1-19.436.907c-2.43-.379-4.854-.639-7.257-1.182-2.714-.613-7.4-2.84-3.41-5.283a11.153,11.153,0,0,1,4.713-1.657.389.389,0,0,0,.351-.257,16.083,16.083,0,0,0,10.61,5.728.831.831,0,0,0,.146.047c6.678.885,11.688-1.451,15.067-5.443C36.546,47.272,41.957,48.8,39.338,51.683ZM39.806,31.5c1.735-.048,3.383.829,3.053,2.8-.275,1.645-2.178,1.791-3.47,1.453A30.209,30.209,0,0,0,39.806,31.5Zm6.721,4.148c-.807,3.766-4.893,4.7-8.186,4.285q.4-1.19.7-2.434a4.243,4.243,0,0,0,5.5-2.982,3.545,3.545,0,0,0-1.325-3.435,4.242,4.242,0,0,0-3.4-.587Q39.808,29.247,39.7,28C44.466,27.384,47.52,31.013,46.527,35.648Z"/>
    </g>
  </g>
</svg>
