<svg xmlns="http://www.w3.org/2000/svg" width="73.473" height="69.04" viewBox="0 0 73.473 69.04">
  <defs>
    <style>
      .cls-1 {
        fill: #c49a6c;
      }

      .cls-2 {
        fill: #30302f;
      }
    </style>
  </defs>
  <g id="Layer_2" data-name="Layer 2">
    <polygon class="cls-1" points="29.744 7.579 38.894 9.765 44.053 13.371 44.873 12.223 44.436 9.491 48.716 3.645 55.144 2.826 59.57 4.52 61.318 8.836 58.914 18.233 55.527 12.223 50.082 9.273 45.058 13.005 44.436 15.095 46.354 22.495 46.354 24.625 48.716 29.106 49.298 31.142 51.885 33.367 57.056 42.874 57.384 45.471 60.717 45.471 63.777 44.185 66.29 41.976 68.475 38.448 69.623 34.405 69.623 32.493 71.48 35.607 72.3 42.983 69.896 46.549 66.399 48.829 62.036 49.539 58.204 48.774 56.073 54.948 52.626 59.1 46.354 60.958 41.922 60.49 42.086 61.635 45.116 63.69 44.873 66.695 42.25 67.514 40.283 66.695 38.48 67.93 35.038 66.531 32.197 66.968 30.394 64.728 32.306 61.887 34.348 61.832 34.348 51.937 29.52 51.94 26.297 51.178 24.985 50.824 23.729 59.865 24.657 61.177 25.906 63.144 24.111 65.547 21.629 65.329 18.538 67.241 16.626 66.039 15.424 64.455 12.747 64.291 11.927 61.635 13.84 59.428 15.643 59.264 16.326 45.261 10.07 41.18 7.174 35.662 7.174 29.816 9.633 25.937 12.201 22.932 12.201 18.834 14.659 13.808 17.446 10.42 13.512 9.491 5.754 12.223 1.383 17.43 2.421 9.765 6.081 4.301 10.616 1.187 16.326 2.607 19.85 9.546 29.744 7.579"/>
  </g>
  <g id="Layer_1" data-name="Layer 1">
    <g>
      <path class="cls-2" d="M26.322,30.962c3.217.521,8.848.106,9.6-3.942,1.063-5.693-8.639-5.945-11.881-3.938-1.6.986-3.049,2.985-2.131,4.955A5.942,5.942,0,0,0,26.322,30.962Zm1.4-7.421c2.081-.153,7.184.247,6.578,3.508-.425,2.284-4.428,2.538-6.148,2.517-1.856-.022-5.438-.569-5.081-3.23C23.321,24.462,26.131,23.657,27.721,23.541Z"/>
      <path class="cls-2" d="M41.354,34.936a.469.469,0,0,0-.81-.473c-5.49,7.529-18.45,7.34-23.679-.243-.151-.22-.555-.163-.539.146.255,4.778,6.091,6.99,10.15,7.364C32.63,42.3,38.62,40.98,41.354,34.936Z"/>
      <path class="cls-2" d="M34.042,47.449c10.072-1.758,21.2-10.352,14.456-21.3a15.568,15.568,0,0,0-1.748-2.307.5.5,0,0,0,.5-.466,12.634,12.634,0,0,0-2.655-10.317.427.427,0,0,0,.465-.053c2.714-1.967,4.644-3.152,7.857-1.282a12.931,12.931,0,0,1,5.1,6.734c.261.716,1.363,1.044,1.764.23,2.967-6.007,4.3-15.435-4.409-16.74-5.395-.809-11.718,3.019-11.229,8.919.027.326.517.435.6.081a9.146,9.146,0,0,1,9.278-7.276c7.164-.04,6.787,7.063,4.913,12.134A14.07,14.07,0,0,0,52.469,9.32a6.077,6.077,0,0,0-8.159,2.936.624.624,0,0,0,.006.487C38.327,6,25.1,5.078,17.476,10.056a.685.685,0,0,0-.208-.9c-5.086-2.9-11.552,1.441-15.194,5.911A23.815,23.815,0,0,1,6.9,4.879c4.2-5.4,10.259-2.313,11.886,3.413a.344.344,0,0,0,.663-.184c-.561-2.719-1.107-4.955-3.357-6.755A6.8,6.8,0,0,0,9.077.675C3.432,3.67-.36,12.214.027,18.366c.052.824,1.317,1.375,1.718.465a14.635,14.635,0,0,1,15.2-8.5.533.533,0,0,0,.134-.009,11.831,11.831,0,0,0-5.3,10.709c.018.363.581.476.659.089,1.6-7.915,7.691-11.974,15.551-12.5C37.429,7.987,44.811,13.605,45.929,23c-.051-.429-1.546-1.294-1.884-1.535a17,17,0,0,0-2.106-1.282,23.151,23.151,0,0,0-4.837-1.8c-5.17-1.309-11.689-.987-16.82-.019C14.114,19.53,6.686,24.6,6.232,31.692A15.817,15.817,0,0,0,7.08,37.7C10.543,47.282,25.659,48.912,34.042,47.449ZM9.176,38.059c-1.867-2.868-1.416-6.989.093-9.84a14.63,14.63,0,0,1,7.82-6.981,29.852,29.852,0,0,1,6.753-1.526,31.4,31.4,0,0,1,12.661.7,29.306,29.306,0,0,1,6.758,3c6.1,3.767,7.177,10.932,2.76,16.387-3.237,4-8.674,5.553-13.553,6.176C24.469,47,13.9,45.314,9.176,38.059Z"/>
      <path class="cls-2" d="M19.538,12.916c-1.77.516-2,2.419-.852,3.682a2.081,2.081,0,0,0,1.9.733c.894-.141,2.014-1.389,1.713-2.379,0-.015.006-.03.008-.044C22.492,13.436,20.781,12.553,19.538,12.916Z"/>
      <path class="cls-2" d="M40.436,16.8c1.962-1.659-.062-4.138-2.184-3.825a2,2,0,0,0-1.69,1.929,2.6,2.6,0,0,0,1.158,2.17A2.222,2.222,0,0,0,40.436,16.8Z"/>
      <path class="cls-2" d="M68.554,30.447c1.026,5.665-2.837,15.593-9.851,14.6-.408-.057-.6.551-.175.633C64.9,46.916,69.2,40.64,70.242,34.628c1.158,3.011,1.943,6.119.491,9.236-2.258,4.849-9.034,5.753-11.868,4.323-.182-.092-.365.094-.483.228.044-5.912-2.241-12.429-6.646-16.336-.329-.293-.908.091-.638.492,6.427,9.575,9.549,25.286-5.617,27.973a.51.51,0,0,0,0,.978c6.429,1.015,12.2-5,12.807-11.155.035-.344.056-.693.073-1.042a.63.63,0,0,0,.161.129c4.1,2.212,9.62.3,12.65-2.873,4.593-4.8,1.235-11.554-.828-16.628A.929.929,0,0,0,68.554,30.447Z"/>
      <path class="cls-2" d="M21.41,67.07a2.686,2.686,0,0,0,.682-.786,3.216,3.216,0,0,0,.518.278,3.036,3.036,0,0,0,3.117-.8,3.4,3.4,0,0,0,.976-3.194,3.534,3.534,0,0,0-1.048-1.725,5.344,5.344,0,0,0-1.274-.916,22.914,22.914,0,0,1,1.126-8.951c.174-.5-.6-.693-.783-.217a26.043,26.043,0,0,0-1.889,9.277.823.823,0,0,0-.155.711c.167.716,1.054.847,1.544,1.229a3.655,3.655,0,0,1,.308.276c.026.025.236.27.166.176a2.618,2.618,0,0,1,.258.458,1.579,1.579,0,0,1-.392,1.611,2.793,2.793,0,0,1-.208.2l-.028.024a1.3,1.3,0,0,1-1.419.218c-.54-.362-.316-1.224-.4-1.817-.141-1.034-1.945-.791-1.826.247.008.066,0,.132.01.2a2.845,2.845,0,0,0,.007.471c-.057,1.235-.7,2.272-2.193,2a2.051,2.051,0,0,1-1.42-.846,1.081,1.081,0,0,1-.121-.285A3.028,3.028,0,0,0,18,63.276a.943.943,0,0,0-.913-1.141c-.95-.012-.947,1.039-1.483,1.507a2.226,2.226,0,0,1-2.417-.01,1.806,1.806,0,0,1-.567-2.053,2.47,2.47,0,0,1,2.706-1.586.541.541,0,0,0,.448-.156A.628.628,0,0,0,16.3,59.2c.01-4.142.857-8.3.288-12.419-.053-.383-.6-.247-.629.085-.37,3.982-.887,7.988-1.017,11.989-2.668-.578-5.062,3.305-3.306,5.557a3.776,3.776,0,0,0,3.837,1.21c.011.036.015.076.028.111a3.462,3.462,0,0,0,2.513,2.086A3.959,3.959,0,0,0,21.41,67.07Z"/>
      <path class="cls-2" d="M33.686,52.6a.477.477,0,0,0,0-.809c-.86-.64-2.059-.366-3.091-.409a18.727,18.727,0,0,1-4.213-.548c-.4-.114-.678.5-.289.686a10.78,10.78,0,0,0,3.647,1.3C30.935,52.955,32.674,53.357,33.686,52.6Z"/>
      <path class="cls-2" d="M42.486,60.978c.114-1.177.048-2.375.123-3.559a38.693,38.693,0,0,0,.2-5.139c-.025-.364-.609-.5-.675-.092-.471,2.878-1.956,6.468-1.143,9.37a.915.915,0,0,0,.545,1.089c.738.289,1.431.221,2.1.759a2.565,2.565,0,0,1,.995,1.781c.055.885-.84,1.461-1.623,1.562a2.129,2.129,0,0,1-1.87-.853c0-.073,0-.145-.005-.221a.893.893,0,0,0-.442-.7.386.386,0,0,0-.495-.156.763.763,0,0,0-.876.859c.131,1.216-.761,1.752-1.906,1.572a1.822,1.822,0,0,1-1.3-.74c-.5-.782.592-1.557-.061-2.111-.6-.612-.955.829-1.526,1.071-.521.221-.941.908-1.558.929a1.422,1.422,0,0,1-1.411-1.228,2.389,2.389,0,0,1,1.926-2.449c.443.746,1.826.6,1.7-.4-.371-2.888.021-5.765-.526-8.643-.093-.488-.878-.372-.859.117.1,2.58-.565,5.115-.488,7.7a2.936,2.936,0,0,0-2.165.77,3.713,3.713,0,0,0-1.362,3.312,3.286,3.286,0,0,0,4.512,2.482,2.867,2.867,0,0,0,.71-.494,3.437,3.437,0,0,0,1.833,1.32,3.373,3.373,0,0,0,3.895-1.387,2.46,2.46,0,0,0,1.734.873A3.566,3.566,0,0,0,46.189,66.2a3.9,3.9,0,0,0-.962-3.75A4.268,4.268,0,0,0,42.486,60.978Z"/>
      <path class="cls-2" d="M51.985,38.859a15.04,15.04,0,0,1-2.08,3.114c-.665.807-2.105,1.531-2.324,2.579a.56.56,0,0,0,.387.683c1.293.242,2.36-1.233,3.065-2.134a7.307,7.307,0,0,0,1.593-4.068A.346.346,0,0,0,51.985,38.859Z"/>
      <path class="cls-2" d="M52.433,42.866a5.257,5.257,0,0,1-1.658,2.978c-.433.456-1.227,1.478-.159,1.772.941.259,1.846-1.071,2.23-1.733a5.637,5.637,0,0,0,.619-3.017A.516.516,0,0,0,52.433,42.866Z"/>
      <path class="cls-2" d="M52.193,49.971c1.219.583,2-1.641,2.268-2.464a.534.534,0,0,0-.971-.41,6.009,6.009,0,0,1-1,1.337C52.185,48.761,51.483,49.632,52.193,49.971Z"/>
    </g>
  </g>
</svg>
