<svg id="Layer_1" data-name="Layer 1" xmlns="http://www.w3.org/2000/svg" width="64.999" height="76.855" viewBox="0 0 64.999 76.855">
  <defs>
    <style>
      .cls-1 {
        fill: #f3f7db;
      }

      .cls-2 {
        fill: #30302f;
      }
    </style>
  </defs>
  <path class="cls-1" d="M21.948,0A44.771,44.771,0,0,0,5.689,3.021c17.322,4.944,29.7,18.033,29.7,33.405C35.392,53.433,20.236,67.641,0,71.121a44.28,44.28,0,0,0,21.948,5.734c23.067,0,41.766-17.2,41.766-38.427S45.015,0,21.948,0Z"/>
  <g>
    <path class="cls-2" d="M7.658,70.742c11.214,5.6,25.56,8.359,37.4,2.964,11.753-5.353,18-14.759,19.626-27.444,1.616-12.6-3.165-25.126-11.979-34.132A33.694,33.694,0,0,0,37.322,3.309,42.185,42.185,0,0,0,14.83,3.153c-.746.183-.428,1.309.317,1.146a43.549,43.549,0,0,1,10.791-.982c-.044.477-.036.964-.122,1.434a3.331,3.331,0,0,1-.9,1.609,22.228,22.228,0,0,0-8.092-1.978.345.345,0,0,0-.091.675c8.031,1.912,15.558,6.288,18.388,14.415,2.4,6.9,1.327,15.317-3.405,20.971a21.953,21.953,0,0,1-2.474,2.414c-.516.45-2.208,1.442-2.022,2.219.213.889,2.485,1.04,3.17,1.132.5.067,4.209.363,4.353-.251C32,57.618,21.684,70.944,8.417,68.944,7.4,68.791,6.577,70.2,7.658,70.742ZM51.511,14.1a12.534,12.534,0,0,1-5.045,5.846c-2.782,1.677-5.893,1.891-8.918,2.787-.1-.756-.217-1.512-.366-2.271a16.022,16.022,0,0,0-.673-2.337c3.9-.917,9.148-3.6,10.962-7.543.9.672,1.781,1.374,2.62,2.141C50.575,13.168,51.047,13.629,51.511,14.1ZM27.263,3.377a41.431,41.431,0,0,1,4.786.594A14.457,14.457,0,0,1,31.071,6.4a6.2,6.2,0,0,1-1.33,1.62,6.613,6.613,0,0,0-.774.648A24.414,24.414,0,0,0,26.28,7.03,4.883,4.883,0,0,0,27.263,3.377Zm3.018,6.288a6.439,6.439,0,0,0,1.957-2.182,7.072,7.072,0,0,0,1.146-3.249A38.315,38.315,0,0,1,39.823,6.25a16.477,16.477,0,0,1-2.615,4.1c-.935,1-2.528,1.74-3.481,2.8A21.828,21.828,0,0,0,30.281,9.665Zm4.357,4.742a12.636,12.636,0,0,0,4.014-3.289,10.521,10.521,0,0,0,2.455-4.305,35.443,35.443,0,0,1,4.878,2.714,11.312,11.312,0,0,1-3.541,4.1A25.956,25.956,0,0,1,36.275,17.5,17.854,17.854,0,0,0,34.638,14.407Zm-.92,39.854c5.557,4.339,15.956,1.988,17.24-5.362a3.926,3.926,0,0,0,1.419-.191c1.143-.374.618-2.211-.494-1.792a3.372,3.372,0,0,1-1.967,0c-.33-.057-.93-.37-1.184,0-.345.5.1,1.1.553,1.444,0,.014-.01.024-.012.04-.762,6.927-9.911,7.3-15.055,4.827a34.706,34.706,0,0,0,2.675-8.412.95.95,0,0,0-1.378-1.058,11.777,11.777,0,0,1-5.381.828c6.379-5.347,8.411-13.079,7.492-21.185,4.993,1.136,13.423-2.372,15.346-7.712,6.528,7.475,10.495,17.862,9.974,27.662-.663,12.5-6.311,22.395-17.555,28.092-10.029,5.081-22.358,3.709-32.614-.5C21.967,70,29.524,62.694,33.718,54.261Z"/>
    <path class="cls-2" d="M55.934,35.015a.8.8,0,0,0,.683-1.19A3.668,3.668,0,0,0,55.6,32.8c-.158-.136-.311-.3-.467-.456a7.051,7.051,0,0,0,.506-.605c.573-.8-.675-1.71-1.338-1.032a8.577,8.577,0,0,1-4.648,2.629c-2.626.505-3.23-1.321-4.334-3.173a.292.292,0,0,0-.528.069,3.132,3.132,0,0,0-.147,1.793,5.805,5.805,0,0,0-2.027,1.739c-.57.81.641,1.621,1.313,1.012.365-.332.7-.685,1.089-1,.123-.1.249-.2.374-.292A4.7,4.7,0,0,0,47.1,34.719a3.466,3.466,0,0,0-.308.549,11.161,11.161,0,0,0-.811,1.75.805.805,0,0,0,1.335.777,3.822,3.822,0,0,0,1.151-2.7l.016,0a6.163,6.163,0,0,0,1.78-.078,4.126,4.126,0,0,0,.085.6,4.244,4.244,0,0,0,.723,1.809c.528.669,1.616-.055,1.386-.807a16.242,16.242,0,0,0-.713-1.591c-.051-.12-.1-.239-.161-.355a9.329,9.329,0,0,0,2.3-1.229A2.83,2.83,0,0,0,55.934,35.015Z"/>
  </g>
</svg>
